<svg width="16" height="16" viewBox="0 0 16 16" fill="none" xmlns="http://www.w3.org/2000/svg">
<path d="M10.6667 11.3335H4.66667V7.00016C4.66667 5.3335 6 4.00016 7.66667 4.00016C9.33333 4.00016 10.6667 5.3335 10.6667 7.00016V11.3335ZM12 10.6668V7.00016C12 4.9535 10.5733 3.24016 8.66667 2.78683V2.3335C8.66667 2.06828 8.56131 1.81393 8.37377 1.62639C8.18624 1.43885 7.93188 1.3335 7.66667 1.3335C7.40145 1.3335 7.1471 1.43885 6.95956 1.62639C6.77202 1.81393 6.66667 2.06828 6.66667 2.3335V2.78683C4.75333 3.24016 3.33333 4.9535 3.33333 7.00016V10.6668L2 12.0002V12.6668H13.3333V12.0002L12 10.6668ZM7.66667 14.6668C8.02029 14.6668 8.35943 14.5264 8.60948 14.2763C8.85952 14.0263 9 13.6871 9 13.3335H6.33333C6.33333 13.6871 6.47381 14.0263 6.72386 14.2763C6.97391 14.5264 7.31304 14.6668 7.66667 14.6668Z" fill="#15191D"/>
</svg>
