<svg width="24" height="24" viewBox="0 0 24 24" fill="none" xmlns="http://www.w3.org/2000/svg">
<path fill-rule="evenodd" clip-rule="evenodd" d="M16.4518 18.9502C18.7942 17.4713 20.35 14.8597 20.35 11.8847C20.35 7.27312 16.6116 3.5347 12 3.5347C7.38846 3.5347 3.65005 7.27312 3.65005 11.8847C3.65005 14.8597 5.20588 17.4713 7.54827 18.9502L6.32217 20.4197C3.56591 18.5824 1.75005 15.4456 1.75005 11.8847C1.75005 6.22377 6.33912 1.6347 12 1.6347C17.6609 1.6347 22.25 6.22377 22.25 11.8847C22.25 15.4456 20.4341 18.5825 17.6779 20.4197L16.4518 18.9502ZM15.0452 17.2645C16.9176 16.2024 18.1808 14.1911 18.1808 11.8847C18.1808 8.4711 15.4136 5.70386 12 5.70386C8.58643 5.70386 5.81919 8.4711 5.81919 11.8847C5.81919 14.1911 7.08246 16.2024 8.95482 17.2645L10.2014 15.7705C8.73575 15.0909 7.71919 13.6065 7.71919 11.8847C7.71919 9.52045 9.63578 7.60386 12 7.60386C14.3642 7.60386 16.2808 9.52045 16.2808 11.8847C16.2808 13.6065 15.2643 15.0909 13.7986 15.7705L15.0452 17.2645ZM12 12.5904C12.3898 12.5904 12.7058 12.2745 12.7058 11.8847C12.7058 11.4949 12.3898 11.1789 12 11.1789C11.6102 11.1789 11.2942 11.4949 11.2942 11.8847C11.2942 12.2745 11.6102 12.5904 12 12.5904ZM12 14.1904C13.2734 14.1904 14.3058 13.1581 14.3058 11.8847C14.3058 10.6112 13.2734 9.57892 12 9.57892C10.7266 9.57892 9.69424 10.6112 9.69424 11.8847C9.69424 13.1581 10.7266 14.1904 12 14.1904ZM10.9625 18.4306L12 17.1741L13.0375 18.4306L14.9653 20.7653L16.2864 22.3653H14.2115H9.7885H7.71354L9.0347 20.7653L10.9625 18.4306ZM11.1097 20.7653L12 19.687L12.8903 20.7653H11.1097Z" fill="white"/>
</svg>
