<svg width="24" height="24" viewBox="0 0 24 24" fill="none" xmlns="http://www.w3.org/2000/svg">
<path d="M13.8263 9.26316L14.6316 10.0684L6.48947 18.2105H5.68421V17.4053L13.8263 9.26316ZM17.0474 3.89474C16.8684 3.89474 16.6 3.98421 16.4211 4.16316L14.8105 5.77368L18.1211 9.17368L19.7316 7.47368C20.0895 7.11579 20.0895 6.57895 19.7316 6.22105L17.6737 4.16316C17.4947 3.98421 17.2263 3.89474 17.0474 3.89474ZM13.8263 6.75789L3.89474 16.6V20H7.29474L17.1368 10.0684L13.8263 6.75789ZM7.47368 3V5.68421H10.1579V7.47368H7.47368V10.1579H5.68421V7.47368H3V5.68421H5.68421V3H7.47368Z" fill="white"/>
</svg>
