<svg width="38" height="16" viewBox="0 0 38 16" fill="none" xmlns="http://www.w3.org/2000/svg">
<path d="M6.94332 2.01753C6.49795 2.5461 5.78537 2.96301 5.07279 2.90345C4.98372 2.18875 5.33259 1.42939 5.74084 0.960372C6.1862 0.416906 6.96559 0.029779 7.59652 0C7.67074 0.744474 7.38126 1.47406 6.94332 2.01753ZM7.58909 3.0449C6.55734 2.98534 5.67403 3.63303 5.18413 3.63303C4.68681 3.63303 3.93711 3.07468 3.12061 3.08957C2.05916 3.10446 1.07194 3.70748 0.530083 4.66785C-0.583326 6.5886 0.240596 9.43249 1.31689 10.9959C1.8439 11.7701 2.47484 12.6188 3.30618 12.5891C4.09299 12.5593 4.40474 12.0754 5.35485 12.0754C6.31239 12.0754 6.58703 12.5891 7.41837 12.5742C8.27941 12.5593 8.82127 11.7999 9.34828 11.0257C9.94952 10.1472 10.1945 9.29104 10.2093 9.24637C10.1945 9.23148 8.54663 8.59868 8.53178 6.69282C8.51693 5.09965 9.83076 4.34029 9.89014 4.29562C9.14787 3.19379 7.98992 3.07468 7.58909 3.0449ZM13.5495 0.885924V12.4923H15.3458V8.52423H17.8325C20.1038 8.52423 21.6997 6.96083 21.6997 4.69763C21.6997 2.43443 20.1335 0.885924 17.8918 0.885924H13.5495ZM15.3458 2.40465H17.4168C18.9756 2.40465 19.8663 3.23846 19.8663 4.70508C19.8663 6.17169 18.9756 7.01295 17.4094 7.01295H15.3458V2.40465ZM24.9805 12.5816C26.1088 12.5816 27.1554 12.0084 27.6305 11.1001H27.6676V12.4923H29.3303V6.71516C29.3303 5.04009 27.9942 3.9606 25.9381 3.9606C24.0304 3.9606 22.6201 5.05498 22.5682 6.55882H24.1863C24.3199 5.84412 24.9805 5.3751 25.8861 5.3751C26.9847 5.3751 27.6008 5.88879 27.6008 6.83427V7.47452L25.3591 7.60853C23.2733 7.73509 22.1451 8.59123 22.1451 10.0802C22.1451 11.584 23.3104 12.5816 24.9805 12.5816ZM25.463 11.2043C24.5055 11.2043 23.8968 10.7428 23.8968 10.0355C23.8968 9.30593 24.4832 8.88158 25.604 8.81458L27.6008 8.68801V9.34315C27.6008 10.4301 26.6803 11.2043 25.463 11.2043ZM31.5497 15.6488C33.3014 15.6488 34.1253 14.9788 34.8453 12.9464L38 4.07227H36.174L34.0585 10.9289H34.0214L31.9059 4.07227H30.028L33.0713 12.5221L32.908 13.0357C32.6334 13.9068 32.188 14.2418 31.3938 14.2418C31.2527 14.2418 30.9781 14.2269 30.8668 14.212V15.6042C30.9707 15.634 31.416 15.6488 31.5497 15.6488Z" fill="white"/>
</svg>
