<svg width="24" height="24" viewBox="0 0 24 24" fill="none" xmlns="http://www.w3.org/2000/svg">
<path d="M13.319 16.8392C13.319 16.537 13.3563 16.2436 13.4028 15.9503H4.01672V8.83919H18.9004V11.5059C19.5516 11.5059 20.1749 11.6214 20.7609 11.817V5.28364C20.7609 4.29697 19.933 3.50586 18.9004 3.50586H4.01672C2.98416 3.50586 2.15625 4.29697 2.15625 5.28364V15.9503C2.15625 16.9281 2.98416 17.7281 4.01672 17.7281H13.4028C13.3563 17.4347 13.319 17.1414 13.319 16.8392ZM4.01672 5.28364H18.9004V7.06141H4.01672V5.28364ZM17.7376 19.5059L15.1795 16.8392L16.2586 15.8081L17.7376 17.2214L21.0772 14.0303L22.1562 15.2836L17.7376 19.5059Z" fill="white"/>
</svg>
