<svg width="16" height="16" viewBox="0 0 16 16" fill="none" xmlns="http://www.w3.org/2000/svg">
<path d="M4.66667 7.99967H6V9.33301H4.66667V7.99967ZM14 3.99967V13.333C14 13.6866 13.8595 14.0258 13.6095 14.2758C13.3594 14.5259 13.0203 14.6663 12.6667 14.6663H3.33333C2.59333 14.6663 2 14.0663 2 13.333V3.99967C2 3.64605 2.14048 3.30691 2.39052 3.05687C2.64057 2.80682 2.97971 2.66634 3.33333 2.66634H4V1.33301H5.33333V2.66634H10.6667V1.33301H12V2.66634H12.6667C13.0203 2.66634 13.3594 2.80682 13.6095 3.05687C13.8595 3.30691 14 3.64605 14 3.99967ZM3.33333 5.33301H12.6667V3.99967H3.33333V5.33301ZM12.6667 13.333V6.66634H3.33333V13.333H12.6667ZM10 9.33301V7.99967H11.3333V9.33301H10ZM7.33333 9.33301V7.99967H8.66667V9.33301H7.33333ZM4.66667 10.6663H6V11.9997H4.66667V10.6663ZM10 11.9997V10.6663H11.3333V11.9997H10ZM7.33333 11.9997V10.6663H8.66667V11.9997H7.33333Z" fill="#676767"/>
</svg>
