<svg width="25" height="25" viewBox="0 0 25 25" fill="none" xmlns="http://www.w3.org/2000/svg">
<path d="M11.9671 2.88477C11.7071 2.88477 11.4471 2.94477 11.1971 3.03477L3.83711 6.08477C2.81711 6.50477 2.32711 7.67477 2.74711 8.68477L7.70711 20.6348C8.01711 21.4048 8.74711 21.8648 9.51711 21.8848C9.77711 21.8848 10.0471 21.8548 10.3071 21.7348L17.6771 18.6848C18.4271 18.3748 18.8871 17.6348 18.9071 16.8848C18.9171 16.6348 18.8671 16.3448 18.7771 16.0848L13.7771 4.13477C13.4871 3.36477 12.7471 2.89477 11.9671 2.88477ZM15.4471 2.88477L18.8971 11.2348V4.88477C18.8971 4.35433 18.6864 3.84562 18.3113 3.47055C17.9362 3.09548 17.4275 2.88477 16.8971 2.88477H15.4471ZM20.9071 4.42477V13.4548L23.3371 7.59477C23.7471 6.57477 23.2771 5.41477 22.2471 4.99477L20.9071 4.42477ZM11.9671 4.85477L16.9471 16.8748L9.55711 19.9348L4.57711 7.92477" fill="white"/>
</svg>
