<svg width="32" height="32" viewBox="0 0 32 32" fill="none" xmlns="http://www.w3.org/2000/svg" style="display:none">
  <symbol id="menu-static">
    <path fill-rule="evenodd" clip-rule="evenodd" d="M6 9C6 8.44772 6.44772 8 7 8H25C25.5523 8 26 8.44772 26 9C26 9.55228 25.5523 10 25 10H7C6.44772 10 6 9.55228 6 9ZM6 16C6 15.4477 6.44772 15 7 15H25C25.5523 15 26 15.4477 26 16C26 16.5523 25.5523 17 25 17H7C6.44772 17 6 16.5523 6 16ZM7 22C6.44772 22 6 22.4477 6 23C6 23.5523 6.44772 24 7 24H25C25.5523 24 26 23.5523 26 23C26 22.4477 25.5523 22 25 22H7Z" fill="black"/>  
  </symbol>
  <symbol id="menu-expand">
    <path fill-rule="evenodd" clip-rule="evenodd" d="M7.33809 21.2614C6.88732 21.6591 6.88732 22.304 7.33809 22.7017C7.78886 23.0994 8.5197 23.0994 8.97047 22.7017L15.5 16.9403L22.0295 22.7017C22.4803 23.0994 23.2111 23.0994 23.6619 22.7017C24.1127 22.304 24.1127 21.6591 23.6619 21.2614L17.1324 15.5L23.6619 9.73864C24.1127 9.34091 24.1127 8.69604 23.6619 8.2983C23.2112 7.90057 22.4803 7.90056 22.0295 8.2983L15.5 14.0597L8.97046 8.29831C8.51969 7.90057 7.78885 7.90057 7.33808 8.29831C6.88731 8.69604 6.88731 9.34091 7.33808 9.73864L13.8676 15.5L7.33809 21.2614Z" fill="black"/>   
  </symbol>
  <symbol id="carret-static">
    <path fill-rule="evenodd" clip-rule="evenodd" d="M16 19.0005L11 13.9263L11.9127 13L16 17.1479L20.0873 13L21 13.9263L16 19.0005Z" fill="black"/>
  </symbol>
  <symbol id="carret-expand">
    <path fill-rule="evenodd" clip-rule="evenodd" d="M16 12.9995L21 18.0737L20.0873 19L16 14.8521L11.9127 19L11 18.0737L16 12.9995Z" fill="black"/>
  </symbol>
  <symbol id="notification-static">
    <path d="M19.059 19.567H12.2758V15.1443C12.2758 13.4433 13.7832 12.0825 15.6674 12.0825C17.5516 12.0825 19.059 13.4433 19.059 15.1443V19.567ZM20.5664 18.8866V15.1443C20.5664 13.0555 18.9535 11.3068 16.798 10.8441V10.3814C16.798 10.1108 16.6788 9.85116 16.4668 9.65976C16.2548 9.46836 15.9673 9.36083 15.6674 9.36083C15.3676 9.36083 15.08 9.46836 14.868 9.65976C14.656 9.85116 14.5369 10.1108 14.5369 10.3814V10.8441C12.3738 11.3068 10.7684 13.0555 10.7684 15.1443V18.8866L9.26107 20.2475V20.9279H22.0738V20.2475L20.5664 18.8866ZM15.6674 22.9691C16.0672 22.9691 16.4506 22.8257 16.7333 22.5705C17.016 22.3153 17.1748 21.9692 17.1748 21.6083H14.16C14.16 21.9692 14.3189 22.3153 14.6015 22.5705C14.8842 22.8257 15.2676 22.9691 15.6674 22.9691Z" fill="black"/>
  </symbol>
  <symbol id="notification-expand">
    <path d="M18.3319 19.9906L11.7799 18.4056L13.0478 14.1336C13.5355 12.4906 15.3817 11.5283 17.2017 11.9686C19.0217 12.4088 20.0876 14.0755 19.5999 15.7186L18.3319 19.9906ZM19.983 19.6855L21.0559 16.0708C21.6548 14.0531 20.5982 11.9871 18.6487 11.0366L18.7814 10.5897C18.859 10.3282 18.8183 10.0496 18.6684 9.81519C18.5185 9.58077 18.2716 9.40971 17.982 9.33965C17.6923 9.2696 17.3837 9.30627 17.1241 9.44161C16.8644 9.57696 16.6749 9.79988 16.5973 10.0613L16.4647 10.5083C14.2427 10.4498 12.1907 11.7637 11.5918 13.7814L10.5189 17.3962L8.67278 18.3584L8.47771 19.0157L20.8538 22.0094L21.0489 21.3522L19.983 19.6855ZM14.0806 22.4842C14.4667 22.5777 14.8782 22.5288 15.2244 22.3483C15.5706 22.1678 15.8233 21.8706 15.9267 21.522L13.0147 20.8176C12.9112 21.1662 12.9654 21.5376 13.1653 21.8502C13.3652 22.1628 13.6944 22.3908 14.0806 22.4842Z" fill="black"/>
  </symbol>
</svg>