<svg width="28" height="28" viewBox="0 0 28 28" fill="none" xmlns="http://www.w3.org/2000/svg">
  <symbol id="close">
    <path fill-rule="evenodd" clip-rule="evenodd" d="M5.25 7.875C5.25 7.39175 5.64175 7 6.125 7H21.875C22.3582 7 22.75 7.39175 22.75 7.875C22.75 8.35825 22.3582 8.75 21.875 8.75H6.125C5.64175 8.75 5.25 8.35825 5.25 7.875ZM5.25 14C5.25 13.5168 5.64175 13.125 6.125 13.125H21.875C22.3582 13.125 22.75 13.5168 22.75 14C22.75 14.4832 22.3582 14.875 21.875 14.875H6.125C5.64175 14.875 5.25 14.4832 5.25 14ZM6.125 19.25C5.64175 19.25 5.25 19.6418 5.25 20.125C5.25 20.6082 5.64175 21 6.125 21H21.875C22.3582 21 22.75 20.6082 22.75 20.125C22.75 19.6418 22.3582 19.25 21.875 19.25H6.125Z" fill="white"/>
  </symbol>
  <symbol id="open">
    <path fill-rule="evenodd" clip-rule="evenodd" d="M18.9498 19.993C19.2916 20.3347 19.8456 20.3347 20.1873 19.993C20.529 19.6512 20.529 19.0972 20.1873 18.7555L15.2375 13.8058L20.1873 8.85603C20.529 8.51432 20.529 7.9603 20.1873 7.61859C19.8456 7.27688 19.2916 7.27688 18.9499 7.61859L14.0001 12.5683L9.05036 7.61859C8.70865 7.27688 8.15463 7.27688 7.81292 7.61859C7.47121 7.9603 7.47121 8.51431 7.81292 8.85602L12.7627 13.8058L7.81293 18.7555C7.47122 19.0972 7.47122 19.6512 7.81293 19.993C8.15464 20.3347 8.70865 20.3347 9.05036 19.993L14.0001 15.0432L18.9498 19.993Z" fill="white"/>
  </symbol>
</svg>