<svg width="20" height="20" viewBox="0 0 20 20" fill="none" xmlns="http://www.w3.org/2000/svg">
<symbol id="close">
  <path d="M12.6667 14.3335H6.66667V10.0002C6.66667 8.3335 8 7.00016 9.66667 7.00016C11.3333 7.00016 12.6667 8.3335 12.6667 10.0002V14.3335ZM14 13.6668V10.0002C14 7.9535 12.5733 6.24016 10.6667 5.78683V5.3335C10.6667 5.06828 10.5613 4.81393 10.3738 4.62639C10.1862 4.43885 9.93188 4.3335 9.66667 4.3335C9.40145 4.3335 9.1471 4.43885 8.95956 4.62639C8.77202 4.81393 8.66667 5.06828 8.66667 5.3335V5.78683C6.75333 6.24016 5.33333 7.9535 5.33333 10.0002V13.6668L4 15.0002V15.6668H15.3333V15.0002L14 13.6668ZM9.66667 17.6668C10.0203 17.6668 10.3594 17.5264 10.6095 17.2763C10.8595 17.0263 11 16.6871 11 16.3335H8.33333C8.33333 16.6871 8.47381 17.0263 8.72386 17.2763C8.97391 17.5264 9.31304 17.6668 9.66667 17.6668Z" fill="var(--color-default)"/>
</symbol>
<symbol id="open">
  <path d="M11.705 13.9102L5.90949 12.3573L7.03104 8.17158C7.4624 6.5617 9.09539 5.61889 10.7053 6.05026C12.3151 6.48162 13.258 8.11461 12.8266 9.72449L11.705 13.9102ZM13.1655 13.6113L14.1145 10.0696C14.6442 8.09265 13.7096 6.06845 11.9852 5.13708L12.1026 4.6992C12.1712 4.44302 12.1353 4.17006 12.0027 3.94038C11.8701 3.7107 11.6516 3.5431 11.3955 3.47445C11.1393 3.40581 10.8663 3.44175 10.6366 3.57435C10.407 3.70696 10.2394 3.92538 10.1707 4.18156L10.0534 4.61945C8.08791 4.56213 6.27285 5.84956 5.74313 7.82648L4.79413 11.3682L3.16114 12.311L2.98859 12.955L13.9358 15.8883L14.1083 15.2443L13.1655 13.6113ZM7.94453 16.3535C8.28611 16.445 8.65005 16.3971 8.95629 16.2203C9.26254 16.0435 9.486 15.7522 9.57753 15.4107L7.00172 14.7205C6.9102 15.062 6.95811 15.426 7.13493 15.7322C7.31174 16.0385 7.60296 16.2619 7.94453 16.3535Z" fill="var(--color-default)"/>
</symbol>
</svg>