<svg width="16" height="16" viewBox="0 0 16 16" fill="none" xmlns="http://www.w3.org/2000/svg">
<path d="M12.1961 13.3997H5.59609V4.99966H12.1961V13.3997ZM12.1961 3.79966H5.59609C5.27783 3.79966 4.97261 3.92609 4.74757 4.15113C4.52252 4.37617 4.39609 4.6814 4.39609 4.99966V13.3997C4.39609 13.7179 4.52252 14.0231 4.74757 14.2482C4.97261 14.4732 5.27783 14.5997 5.59609 14.5997H12.1961C12.5144 14.5997 12.8196 14.4732 13.0446 14.2482C13.2697 14.0231 13.3961 13.7179 13.3961 13.3997V4.99966C13.3961 4.6814 13.2697 4.37617 13.0446 4.15113C12.8196 3.92609 12.5144 3.79966 12.1961 3.79966ZM10.3961 1.39966H3.19609C2.87783 1.39966 2.57261 1.52609 2.34757 1.75113C2.12252 1.97617 1.99609 2.2814 1.99609 2.59966V10.9997H3.19609V2.59966H10.3961V1.39966Z" fill="#A3A3A3"/>
</svg>
