<svg width="38" height="16" viewBox="0 0 38 16" fill="none" xmlns="http://www.w3.org/2000/svg">
<path d="M17.9716 7.37196V11.7952H16.5684V0.871828H20.2899C20.7342 0.862548 21.1758 0.941335 21.5895 1.10364C22.0031 1.26595 22.3805 1.50856 22.6998 1.81748C23.0224 2.10764 23.2791 2.46349 23.4528 2.86112C23.6264 3.25874 23.7129 3.68893 23.7065 4.12277C23.7157 4.55892 23.6305 4.99192 23.4568 5.39208C23.283 5.79224 23.0248 6.1501 22.6998 6.44113C22.0491 7.06169 21.2458 7.37167 20.2899 7.37109H17.9716V7.37196ZM17.9716 2.21665V6.02975H20.3248C20.5828 6.0374 20.8395 5.99112 21.0786 5.89387C21.3177 5.79662 21.5338 5.65054 21.7132 5.46498C21.8917 5.29148 22.0335 5.08397 22.1304 4.8547C22.2272 4.62543 22.2771 4.37907 22.2771 4.13018C22.2771 3.88129 22.2272 3.63492 22.1304 3.40565C22.0335 3.17639 21.8917 2.96887 21.7132 2.79537C21.5361 2.6059 21.3207 2.45624 21.0813 2.35632C20.842 2.2564 20.5841 2.20849 20.3248 2.21578H17.9716V2.21665Z" fill="white"/>
<path d="M26.9397 4.07715C27.9769 4.07715 28.7955 4.35431 29.3958 4.90862C29.996 5.46294 30.2958 6.22294 30.2952 7.18864V11.7949H28.953V10.7577H28.892C28.311 11.6118 27.5382 12.0389 26.5736 12.0389C25.7503 12.0389 25.0615 11.7949 24.5071 11.3068C24.2411 11.0828 24.0285 10.8022 23.8846 10.4856C23.7408 10.169 23.6694 9.82422 23.6757 9.4765C23.6757 8.70313 23.9679 8.08809 24.5525 7.63139C25.137 7.17469 25.9173 6.94576 26.8935 6.9446C27.7267 6.9446 28.4129 7.09712 28.9521 7.40217V7.08144C28.9537 6.84438 28.9025 6.60995 28.8023 6.39513C28.702 6.18032 28.5552 5.9905 28.3725 5.83945C28.0015 5.50467 27.5179 5.322 27.0181 5.32785C26.2343 5.32785 25.614 5.65846 25.1573 6.31969L23.9215 5.54138C24.6013 4.56523 25.6074 4.07715 26.9397 4.07715ZM25.1242 9.507C25.1233 9.68559 25.165 9.86181 25.246 10.021C25.3269 10.1802 25.4448 10.3177 25.5896 10.4221C25.9 10.6663 26.2852 10.7956 26.68 10.7882C27.2721 10.7872 27.8397 10.5515 28.2584 10.1328C28.7232 9.69526 28.9556 9.18191 28.9556 8.59273C28.5181 8.2441 27.908 8.06979 27.1253 8.06979C26.5553 8.06979 26.08 8.20721 25.6995 8.48204C25.3151 8.76094 25.1242 9.09998 25.1242 9.507Z" fill="white"/>
<path d="M37.9997 4.32129L33.3142 15.0895H31.8656L33.6044 11.3217L30.5234 4.32129H32.0487L34.2755 9.69013H34.306L36.4719 4.32129H37.9997Z" fill="white"/>
<path d="M12.3009 6.41855C12.3014 5.99092 12.2653 5.56403 12.1928 5.14258H6.2749V7.55943H9.66442C9.59506 7.94544 9.44826 8.3134 9.23286 8.64114C9.01746 8.96888 8.73793 9.24962 8.41111 9.46642V11.0352H10.434C11.6185 9.94316 12.3009 8.32815 12.3009 6.41855Z" fill="#4285F4"/>
<path d="M6.27524 12.5508C7.96869 12.5508 9.39458 11.9948 10.4344 11.036L8.41145 9.46722C7.84842 9.84897 7.12327 10.0669 6.27524 10.0669C4.63844 10.0669 3.24916 8.96345 2.75237 7.47656H0.668457V9.09332C1.19076 10.1326 1.99165 11.0063 2.98172 11.6169C3.97178 12.2274 5.11206 12.5508 6.27524 12.5508Z" fill="#34A853"/>
<path d="M2.75212 7.4768C2.48948 6.69766 2.48948 5.8539 2.75212 5.07476V3.45801H0.668205C0.228828 4.33232 0 5.29727 0 6.27578C0 7.25429 0.228828 8.21924 0.668205 9.09355L2.75212 7.4768Z" fill="#FBBC04"/>
<path d="M6.27524 2.48437C7.17015 2.46975 8.03488 2.80788 8.6825 3.42567L10.4736 1.6346C9.33785 0.567867 7.83327 -0.0177858 6.27524 0.000411717C5.11206 0.00046473 3.97178 0.32381 2.98172 0.934349C1.99165 1.54489 1.19076 2.41859 0.668457 3.45791L2.75237 5.07467C3.24916 3.58778 4.63844 2.48437 6.27524 2.48437Z" fill="#EA4335"/>
</svg>
