<svg fill="none" xmlns="http://www.w3.org/2000/svg" xmlns:xlink="http://www.w3.org/1999/xlink"  viewBox="0 0 139 38" width="139" height="38">
<path d="M46.9004 36.309H0.997152C0.732691 36.309 0.479062 36.2084 0.292059 36.0294C0.105057 35.8503 0 35.6074 0 35.3542C0 35.1009 0.105057 34.8581 0.292059 34.679C0.479062 34.5 0.732691 34.3994 0.997152 34.3994H46.9004C47.1649 34.3994 47.4185 34.5 47.6055 34.679C47.7925 34.8581 47.8976 35.1009 47.8976 35.3542C47.8976 35.6074 47.7925 35.8503 47.6055 36.0294C47.4185 36.2084 47.1649 36.309 46.9004 36.309Z" fill="var(--color-default)"/>
<path d="M42.908 36.309C42.7768 36.309 42.6468 36.2842 42.5256 36.236C42.4043 36.1877 42.2942 36.1171 42.2016 36.028C42.109 35.939 42.0356 35.8333 41.9857 35.717C41.9358 35.6008 41.9104 35.4762 41.9109 35.3505V21.9756C41.9109 21.7224 42.016 21.4795 42.203 21.3004C42.39 21.1214 42.6436 21.0208 42.908 21.0208C43.1725 21.0208 43.4261 21.1214 43.6131 21.3004C43.8001 21.4795 43.9052 21.7224 43.9052 21.9756V35.3505C43.9057 35.4762 43.8803 35.6008 43.8304 35.717C43.7805 35.8333 43.7071 35.939 43.6145 36.028C43.5218 36.1171 43.4118 36.1877 43.2905 36.236C43.1693 36.2842 43.0393 36.309 42.908 36.309Z" fill="var(--color-default)"/>
<path d="M4.98959 36.309C4.85832 36.309 4.72835 36.2842 4.60712 36.236C4.48589 36.1878 4.37579 36.1171 4.28315 36.0281C4.19051 35.939 4.11713 35.8333 4.06725 35.717C4.01736 35.6008 3.99194 35.4762 3.99244 35.3505V13.3785C3.99244 12.8759 4.09596 12.3782 4.29707 11.9139C4.49818 11.4496 4.79294 11.0278 5.16448 10.6727C5.53602 10.3176 5.97704 10.0362 6.4623 9.84449C6.94756 9.6528 7.46753 9.55462 7.99247 9.55558H18.9611C19.2256 9.55558 19.4792 9.65618 19.6662 9.83524C19.8532 10.0143 19.9583 10.2572 19.9583 10.5104C19.9583 10.7636 19.8532 11.0065 19.6662 11.1856C19.4792 11.3646 19.2256 11.4652 18.9611 11.4652H7.99247C7.46319 11.4662 6.95594 11.6682 6.58205 12.0269C6.20815 12.3856 5.99816 12.8717 5.99816 13.3785V35.3505C5.99868 35.4771 5.97288 35.6026 5.92228 35.7196C5.87169 35.8366 5.79729 35.9428 5.70343 36.032C5.60958 36.1212 5.49813 36.1916 5.37558 36.2391C5.25303 36.2867 5.12182 36.3105 4.98959 36.309Z" fill="var(--color-default)"/>
<path d="M19.9583 26.7534C19.1685 26.7541 18.3962 26.5305 17.7392 26.1109C17.0821 25.6913 16.5698 25.0944 16.267 24.396C15.9643 23.6975 15.8847 22.9287 16.0383 22.1869C16.1919 21.445 16.5718 20.7635 17.13 20.2285C17.6882 19.6935 18.3996 19.329 19.1742 19.1812C19.9487 19.0334 20.7517 19.1089 21.4814 19.3981C22.2111 19.6874 22.8349 20.1774 23.2738 20.8061C23.7126 21.4349 23.9469 22.1742 23.9469 22.9304C23.9469 23.9437 23.5268 24.9156 22.7789 25.6324C22.031 26.3492 21.0165 26.7524 19.9583 26.7534ZM19.9583 21.0208C19.5627 21.0201 19.1759 21.1318 18.8467 21.3417C18.5176 21.5517 18.2609 21.8505 18.1092 22.2002C17.9575 22.55 17.9176 22.935 17.9946 23.3065C18.0715 23.6779 18.2619 24.0192 18.5416 24.287C18.8212 24.5548 19.1776 24.7371 19.5656 24.8108C19.9535 24.8845 20.3556 24.8463 20.7209 24.701C21.0861 24.5558 21.3981 24.31 21.6174 23.9948C21.8367 23.6796 21.9533 23.3092 21.9526 22.9304C21.9516 22.4243 21.7411 21.9391 21.3673 21.5812C20.9935 21.2233 20.4869 21.0217 19.9583 21.0208Z" fill="var(--color-default)"/>
<path d="M26.9421 36.309C26.8108 36.309 26.6808 36.2841 26.5596 36.2359C26.4384 36.1877 26.3283 36.1171 26.2357 36.028C26.143 35.939 26.0696 35.8333 26.0197 35.717C25.9699 35.6007 25.9444 35.4762 25.9449 35.3505V33.4408C25.9429 32.6811 25.6266 31.9531 25.0652 31.4162C24.5038 30.8793 23.7431 30.5773 22.9497 30.5763H16.963C16.1699 30.5773 15.4096 30.8794 14.8488 31.4164C14.288 31.9534 13.9725 32.6814 13.9715 33.4408V35.3505C13.9558 35.594 13.8437 35.8226 13.6581 35.9897C13.4724 36.1568 13.2272 36.2499 12.9724 36.2499C12.7177 36.2499 12.4725 36.1568 12.2868 35.9897C12.1012 35.8226 11.9891 35.594 11.9734 35.3505V33.4408C11.9754 32.1746 12.5019 30.9609 13.4373 30.0658C14.3727 29.1708 15.6406 28.6677 16.963 28.6667H22.9497C24.2723 28.6667 25.5409 29.1696 26.4765 30.0648C27.4121 30.96 27.9382 32.1743 27.9392 33.4408V35.3505C27.9397 35.4762 27.9143 35.6007 27.8644 35.717C27.8145 35.8333 27.7412 35.939 27.6485 36.028C27.5559 36.1171 27.4458 36.1877 27.3246 36.2359C27.2033 36.2841 27.0734 36.309 26.9421 36.309Z" fill="var(--color-default)"/>
<path d="M35.9241 17.1978C34.74 17.1978 33.5826 16.8616 32.5981 16.2317C31.6135 15.6018 30.8462 14.7065 30.3931 13.659C29.94 12.6115 29.8214 11.4589 30.0524 10.3468C30.2834 9.23483 30.8536 8.21337 31.6908 7.41165C32.5281 6.60993 33.5948 6.06395 34.7561 5.84276C35.9175 5.62156 37.1212 5.73509 38.2151 6.16898C39.309 6.60287 40.244 7.33763 40.9019 8.28035C41.5597 9.22308 41.9108 10.3314 41.9108 11.4652C41.9098 12.9853 41.2787 14.4429 40.1562 15.5177C39.0337 16.5926 37.5116 17.1969 35.9241 17.1978ZM35.9241 7.64226C35.1343 7.64154 34.362 7.86514 33.705 8.28478C33.0479 8.70441 32.5356 9.30122 32.2329 9.99971C31.9301 10.6982 31.8505 11.467 32.0041 12.2088C32.1577 12.9506 32.5377 13.6322 33.0959 14.1672C33.6541 14.7022 34.3655 15.0667 35.14 15.2145C35.9146 15.3623 36.7175 15.2868 37.4472 14.9975C38.177 14.7083 38.8007 14.2183 39.2396 13.5895C39.6785 12.9608 39.9127 12.2215 39.9127 11.4652C39.9087 10.4541 39.4869 9.48566 38.7396 8.77139C37.9922 8.05712 36.98 7.65512 35.9241 7.6532V7.64226Z" fill="var(--color-default)"/>
<path d="M35.9241 22.9305C33.556 22.9305 31.2411 22.2581 29.272 20.9982C27.303 19.7384 25.7684 17.9478 24.8621 15.8528C23.9559 13.7578 23.7188 11.4525 24.1808 9.22848C24.6428 7.00445 25.7831 4.96154 27.4576 3.35809C29.1321 1.75465 31.2656 0.662695 33.5882 0.220306C35.9108 -0.222082 38.3183 0.0049677 40.5062 0.872744C42.694 1.74052 44.564 3.21005 45.8797 5.0955C47.1953 6.98095 47.8976 9.19763 47.8976 11.4652V13.3785C47.8976 14.3934 47.4765 15.3667 46.7271 16.0844C45.9777 16.802 44.9612 17.2051 43.9013 17.2051C42.8415 17.2051 41.825 16.802 41.0756 16.0844C40.3262 15.3667 39.9051 14.3934 39.9051 13.3785V6.68745C39.9208 6.44394 40.0329 6.21533 40.2186 6.04821C40.4042 5.88109 40.6494 5.78805 40.9042 5.78805C41.159 5.78805 41.4042 5.88109 41.5898 6.04821C41.7754 6.21533 41.8875 6.44394 41.9032 6.68745V13.3785C41.9257 13.8711 42.1458 14.3363 42.5177 14.6772C42.8896 15.0181 43.3846 15.2084 43.8994 15.2084C44.4143 15.2084 44.9093 15.0181 45.2812 14.6772C45.6531 14.3363 45.8732 13.8711 45.8957 13.3785V11.4652C45.8957 9.57502 45.3102 7.72725 44.2133 6.15569C43.1165 4.58412 41.5575 3.35937 39.7336 2.63634C37.9097 1.91332 35.9029 1.72451 33.9669 2.09381C32.0309 2.4631 30.2528 3.37391 28.8575 4.71101C27.4622 6.04811 26.5124 7.75143 26.1282 9.60551C25.744 11.4596 25.9427 13.3811 26.6992 15.1271C27.4557 16.873 28.7359 18.3649 30.3779 19.414C32.02 20.4631 33.9501 21.0223 35.9241 21.0208C36.1886 21.0208 36.4422 21.1214 36.6292 21.3005C36.8162 21.4795 36.9213 21.7224 36.9213 21.9756C36.9213 22.2289 36.8162 22.4717 36.6292 22.6508C36.4422 22.8299 36.1886 22.9305 35.9241 22.9305Z" fill="var(--color-default)"/>
<path d="M56.3848 21.05C63.8711 11.939 64.6399 10.6672 64.6399 8.35662C64.6399 6.89886 63.7302 5.6452 62.2269 5.6452C60.7236 5.6452 59.4981 6.44696 58.5542 8.12338L55.7568 5.60875C57.2792 3.29821 59.2887 1.89148 62.4362 1.89148C66.4591 1.89148 69.0814 4.44255 69.0814 8.29102C69.0814 11.2357 67.6846 13.6811 62.1927 20.8496H69.1879V24.5668H56.3848V21.05Z" fill="var(--color-default)"/>
<path d="M71.8102 21.05C79.2926 11.939 80.0652 10.6672 80.0652 8.35662C80.0652 6.89886 79.1556 5.6452 77.6485 5.6452C76.1413 5.6452 74.9234 6.44696 73.9796 8.12338L71.1708 5.60875C72.6931 3.29821 74.7065 1.89148 77.854 1.89148C81.873 1.89148 84.4991 4.44255 84.4991 8.29102C84.4991 11.2357 83.0986 13.6811 77.6066 20.8496H84.6019V24.5668H71.8102V21.05Z" fill="var(--color-default)"/>
<path d="M87.5819 2.22672H97.8122V5.94399H91.9892V11.3377H97.5496V15.055H91.9892V20.8495H97.8122V24.5668H87.5819V2.22672Z" fill="var(--color-default)"/>
<path d="M103.319 19.9786C103.831 19.9786 104.332 20.1239 104.757 20.3962C105.183 20.6685 105.515 21.0556 105.711 21.5084C105.906 21.9612 105.958 22.4595 105.858 22.9402C105.758 23.4209 105.511 23.8625 105.149 24.2091C104.788 24.5557 104.326 24.7917 103.824 24.8873C103.322 24.9829 102.802 24.9339 102.329 24.7463C101.856 24.5587 101.452 24.2411 101.168 23.8336C100.883 23.426 100.731 22.9469 100.731 22.4568C100.741 21.8024 101.017 21.1776 101.5 20.7148C101.984 20.2521 102.636 19.988 103.319 19.9786Z" fill="var(--color-default)"/>
<path d="M115.32 16.3596H113.885V24.5668H109.474V2.22672H115.982C119.689 2.22672 122.345 5.07298 122.345 9.15105C122.345 12.9376 120.667 14.6468 119.339 15.3137L122.551 24.5668H117.831L115.32 16.3596ZM115.32 5.94399H113.885V12.6424H115.32C116.964 12.6424 117.873 11.3049 117.873 9.29318C117.873 7.28148 116.96 5.94399 115.32 5.94399Z" fill="var(--color-default)"/>
<path d="M125.561 2.22672H129.969V18.3021C129.969 20.4887 130.844 21.2504 132.206 21.2504C133.569 21.2504 134.448 20.4778 134.448 18.3021V2.22672H138.852V18.1017C138.852 22.8904 135.67 24.9677 132.206 24.9677C128.743 24.9677 125.561 22.8904 125.561 18.1017V2.22672Z" fill="var(--color-default)"/>
<path d="M55.7111 30.7221H57.6369C58.5998 30.7221 59.1593 31.225 59.1593 32.0523C59.177 32.3075 59.1049 32.5611 58.9545 32.7724C58.8041 32.9838 58.5841 33.1409 58.3296 33.2185C58.605 33.3089 58.8429 33.4817 59.008 33.7114C59.1731 33.941 59.2568 34.2154 59.2468 34.494C59.2468 35.3614 58.7216 35.8971 57.6712 35.8971H55.6997L55.7111 30.7221ZM57.6141 31.1849H56.2706V33.0071H57.6141C57.8664 33.0071 58.1084 32.9111 58.2869 32.7403C58.4653 32.5694 58.5656 32.3377 58.5656 32.096C58.5656 31.8544 58.4653 31.6227 58.2869 31.4518C58.1084 31.2809 57.8664 31.1849 57.6141 31.1849ZM57.6483 33.4663H56.2706V35.4379H57.6483C57.7861 35.4531 57.9257 35.4382 58.0566 35.3945C58.1876 35.3508 58.3065 35.2793 58.4046 35.1854C58.5026 35.0915 58.5773 34.9776 58.6229 34.8522C58.6686 34.7268 58.6841 34.5932 58.6683 34.4612C58.6789 34.3296 58.6599 34.1973 58.6126 34.0732C58.5653 33.9492 58.4909 33.8362 58.3943 33.742C58.2977 33.6477 58.1811 33.5744 58.0525 33.5268C57.9238 33.4793 57.786 33.4587 57.6483 33.4663Z" fill="var(--color-default)"/>
<path d="M60.6475 30.7221H61.2069V34.946L63.4905 30.7221H64.0842V35.8971H63.5247V31.6113L61.2183 35.8971H60.6475V30.7221Z" fill="var(--color-default)"/>
<path d="M65.538 35.4161C65.7626 35.1172 66.1089 34.3228 66.2992 31.9758L66.3981 30.7221H69.1308V35.4161H69.7702V37.2164H69.2678V35.8971H65.5989V37.2164H65.0813V35.4161H65.538ZM66.1089 35.4161H68.5599V31.2068H66.8815L66.813 32.0414C66.6227 34.3118 66.3334 35.0626 66.1089 35.4161Z" fill="var(--color-default)"/>
<path d="M72.6931 30.6129C74.0937 30.6129 74.7407 31.8665 74.7407 33.3352V33.5065H71.205C71.2278 34.6836 71.833 35.5838 72.8606 35.5838C73.1244 35.5776 73.3829 35.5112 73.6146 35.3901C73.8463 35.2691 74.0444 35.0968 74.1927 34.8877L74.539 35.1975C74.346 35.4606 74.0895 35.6752 73.7913 35.823C73.4932 35.9709 73.1621 36.0476 72.8263 36.0466C71.4181 36.0466 70.5999 34.8877 70.5999 33.3243C70.5961 31.8046 71.3801 30.6129 72.6931 30.6129ZM71.1936 33.0765H74.1698C74.1698 32.1872 73.755 31.072 72.6817 31.072C71.6084 31.072 71.2126 32.2018 71.1898 33.0582L71.1936 33.0765Z" fill="var(--color-default)"/>
<path d="M75.7798 33.3061C75.7798 31.8483 76.4953 30.5946 77.8616 30.5946C79.2279 30.5946 79.9549 31.8374 79.9549 33.3061C79.9549 34.7747 79.247 36.0284 77.8616 36.0284C76.4763 36.0284 75.7798 34.7747 75.7798 33.3061ZM79.3497 33.3061C79.3497 32.1909 78.9006 31.0757 77.8616 31.0757C76.8226 31.0757 76.3811 32.1909 76.3811 33.3061C76.3811 34.4212 76.8416 35.5437 77.8616 35.5437C78.8816 35.5437 79.3497 34.4322 79.3497 33.3061Z" fill="var(--color-default)"/>
<path d="M80.8264 33.0582H83.1328V33.5502H80.8264V33.0582Z" fill="var(--color-default)"/>
<path d="M85.6714 33.4335L84.8227 34.443V35.9008H84.2632V30.7221H84.8227V33.7324L87.3269 30.7221H88.012L86.052 33.0582L87.9892 35.8971H87.3041L85.6714 33.4335Z" fill="var(--color-default)"/>
<path d="M88.5372 33.3061C88.5372 31.8483 89.2527 30.5946 90.6191 30.5946C91.9854 30.5946 92.7123 31.8374 92.7123 33.3061C92.7123 34.7747 92.0044 36.0284 90.6191 36.0284C89.2337 36.0284 88.5372 34.7747 88.5372 33.3061ZM92.1072 33.3061C92.1072 32.1909 91.6581 31.0757 90.6191 31.0757C89.5801 31.0757 89.1424 32.1909 89.1424 33.3061C89.1424 34.4212 89.5991 35.5437 90.6191 35.5437C91.6391 35.5437 92.1034 34.4322 92.1034 33.3061H92.1072Z" fill="var(--color-default)"/>
<path d="M94.0444 30.7221H94.6039V32.9743H96.9293V30.7221H97.4888V35.8971H96.9293V33.4554H94.6039V35.8971H94.0444V30.7221Z" fill="var(--color-default)"/>
<path d="M100.96 30.6129C101.244 30.6034 101.526 30.6609 101.782 30.7804C102.037 30.8998 102.258 31.0776 102.425 31.298L102.09 31.6624C101.973 31.4865 101.81 31.342 101.619 31.2425C101.427 31.1431 101.212 31.092 100.994 31.0939C99.9397 31.0939 99.4259 32.1326 99.4259 33.3243C99.4259 34.516 99.9397 35.5619 100.994 35.5619C101.213 35.5624 101.428 35.5099 101.619 35.4092C101.811 35.3085 101.973 35.1629 102.09 34.9861L102.425 35.3506C102.261 35.5738 102.041 35.7538 101.784 35.8736C101.528 35.9934 101.244 36.0491 100.96 36.0357C99.6048 36.0357 98.8208 34.8221 98.8208 33.3133C98.8208 31.8046 99.6048 30.6129 100.96 30.6129Z" fill="var(--color-default)"/>
<path d="M103.67 37.5152C103.982 37.5152 104.161 37.3767 104.328 36.9394L104.663 36.0065L102.874 30.7221H103.498L104.956 35.2339L106.41 30.7221H107.038L104.853 37.0779C104.617 37.7412 104.237 37.9999 103.689 37.9999C103.526 37.9992 103.364 37.9733 103.209 37.9234L103.308 37.4314C103.421 37.4836 103.544 37.5122 103.67 37.5152Z" fill="var(--color-default)"/>
<path d="M108.29 31.9539L108.381 30.7221H111.11V35.8971H110.551V31.2068H108.849L108.792 31.9867C108.526 35.4598 107.898 36.0283 107.068 36.0283V35.5035C107.574 35.5035 108.054 34.986 108.29 31.9539Z" fill="var(--color-default)"/>
<path d="M113.261 32.6427H114.593C115.029 32.6625 115.441 32.8426 115.743 33.1456C116.045 33.4486 116.213 33.8512 116.213 34.2699C116.213 34.6886 116.045 35.0913 115.743 35.3943C115.441 35.6973 115.029 35.8773 114.593 35.8971H112.69V30.7221H113.249L113.261 32.6427ZM113.261 35.427H114.558C115.32 35.427 115.632 34.9022 115.632 34.2681C115.632 33.634 115.32 33.1128 114.558 33.1128H113.272L113.261 35.427Z" fill="var(--color-default)"/>
<path d="M117.603 31.2068H116.336V30.7221H119.438V31.2068H118.17V35.8971H117.603V31.2068Z" fill="var(--color-default)"/>
<path d="M123.186 35.3214C123.03 35.5441 122.818 35.7255 122.569 35.8491C122.32 35.9726 122.043 36.0343 121.763 36.0284C120.88 36.0284 120.142 35.3724 120.142 34.3009C120.142 33.2295 120.88 32.5881 121.763 32.5881C122.042 32.58 122.319 32.6395 122.568 32.7612C122.817 32.8829 123.029 33.0628 123.186 33.2842V32.2674C123.186 31.4948 122.771 31.0647 122.045 31.0647C121.777 31.0654 121.512 31.1261 121.273 31.2419C121.034 31.3577 120.826 31.5254 120.667 31.7316L120.378 31.3417C120.592 31.1067 120.857 30.9196 121.155 30.7936C121.453 30.6677 121.776 30.6059 122.102 30.6128C123.129 30.6128 123.757 31.1267 123.757 32.2419V35.8972H123.186V35.3214ZM123.186 33.7434C123.068 33.5205 122.887 33.334 122.664 33.205C122.44 33.0761 122.184 33.0101 121.923 33.0145C121.162 33.0145 120.735 33.6049 120.735 34.3119C120.735 35.0189 121.173 35.6093 121.923 35.6093C122.183 35.6111 122.439 35.544 122.662 35.4154C122.885 35.2868 123.066 35.1016 123.186 34.8804V33.7434Z" fill="var(--color-default)"/>
<path d="M125.344 35.8971V30.7221H125.904V35.4161H128.165V30.7221H128.735V35.4161H129.375V37.2164H128.872V35.8971H125.344Z" fill="var(--color-default)"/>
<path d="M130.517 30.7221H131.076V34.946L133.36 30.7221H133.969V35.8971H133.409V31.6113L131.087 35.8971H130.517V30.7221Z" fill="var(--color-default)"/>
<path d="M135.552 30.7221H136.111V34.946L138.395 30.7221H138.988V35.8971H138.429V31.6113L136.123 35.8971H135.552V30.7221Z" fill="var(--color-default)"/>
</svg>