<svg width="66" height="28" viewBox="0 0 66 28" fill="none" xmlns="http://www.w3.org/2000/svg">
<path d="M0 17.2188H6.43126V20.7673H8.89141V17.2188H10.6736V15.144H8.89141V7H5.94698L0 15.687V17.2188ZM2.63449 15.144V15.1053L5.81138 10.7036C6.17943 10.1801 6.48937 9.44321 6.48937 9.44321H6.52811C6.52811 9.44321 6.43126 10.1994 6.43126 10.8781V15.144H2.63449Z" fill="white"/>
<path d="M11.9935 17.2188H18.4248V20.7673H20.8849V17.2188H22.6671V15.144H20.8849V7H17.9405L11.9935 15.687V17.2188ZM14.628 15.144V15.1053L17.8049 10.7036C18.173 10.1801 18.4829 9.44321 18.4829 9.44321H18.5216C18.5216 9.44321 18.4248 10.1994 18.4248 10.8781V15.144H14.628Z" fill="white"/>
<path d="M23.5609 20.7673H26.1179L27.2802 17.2382H32.1036L33.2853 20.7673H35.8423L31.0188 7H28.3843L23.5609 20.7673ZM27.9001 15.2022L29.1398 11.518C29.3723 10.7424 29.6822 9.38504 29.6822 9.38504H29.721C29.721 9.38504 30.0309 10.7424 30.2634 11.518L31.4837 15.2022H27.9001Z" fill="white"/>
<path d="M37.2833 20.7673H39.7435V18.2853H37.2833V20.7673Z" fill="white"/>
<path d="M42.6838 20.7673H45.1827V15.6288H47.5847L50.2967 20.7673H53.1055L50.2773 15.6482C50.0061 15.144 49.8318 14.9307 49.8318 14.9307V14.892C51.2846 14.3102 52.137 12.759 52.137 11.1302C52.137 9.2687 51.2265 7.95014 49.8124 7.36842C49.2313 7.11634 48.5727 7 47.2167 7H42.6838V20.7673ZM45.1827 13.4571V9.15235H47.0036C47.7591 9.15235 48.1659 9.22992 48.5146 9.38504C49.27 9.69529 49.5993 10.3934 49.5993 11.2659C49.5993 12.6233 48.7664 13.4571 47.4298 13.4571H45.1827Z" fill="white"/>
<path d="M54.9196 15.8227C54.9196 18.9058 57.1473 21 60.4792 21C63.7917 21 66 18.9058 66 15.8227V7H63.5011V15.8033C63.5011 17.6648 62.3001 18.7119 60.4598 18.7119C58.6195 18.7119 57.4185 17.6648 57.4185 15.8033V7H54.9196V15.8227Z" fill="white"/>
</svg>
