<svg width="74" height="40" viewBox="0 0 74 40" fill="none" xmlns="http://www.w3.org/2000/svg">
<rect width="74" height="40" rx="2" fill="#15191D"/>
<path d="M55.2559 14H46.6177C47.1209 16.8514 49.8885 19.5352 52.9076 19.5352H59.7847C59.8685 19.2836 59.8685 18.8642 59.8685 18.6126C59.8685 16.0967 57.7719 14 55.2559 14Z" fill="#676767"/>
<path d="M47.3721 20.0371V26.998H51.5654V23.3079H55.2555C57.2683 23.3079 59.0295 21.8822 59.6166 20.0371H47.3721Z" fill="white"/>
<path d="M32.6117 14V26.9154H36.3018C36.3018 26.9154 37.2243 26.9154 37.7275 25.9929C40.2435 21.0448 40.9983 19.5352 40.9983 19.5352H41.5015V26.9154H45.6948V14H42.0047C42.0047 14 41.0822 14.0839 40.579 14.9225C38.4823 19.1997 37.3082 21.3802 37.3082 21.3802H36.805V14H32.6117Z" fill="white"/>
<path d="M15 27.0013V14.0859H19.1933C19.1933 14.0859 20.3674 14.0859 21.0384 15.931C22.7157 20.7952 22.8834 21.4662 22.8834 21.4662C22.8834 21.4662 23.2189 20.292 24.7285 15.931C25.3994 14.0859 26.5735 14.0859 26.5735 14.0859H30.7668V27.0013H26.5735V20.0404H26.0703L23.7221 27.0013H21.877L19.5288 20.0404H19.0256V27.0013H15Z" fill="white"/>
</svg>
