<svg width="74" height="40" viewBox="0 0 74 40" fill="none" xmlns="http://www.w3.org/2000/svg">
<rect width="74" height="40" rx="2" fill="#15191D"/>
<rect opacity="0.83" x="32" y="13" width="9" height="16" fill="#E7E7E7" fill-opacity="0.7"/>
<path fill-rule="evenodd" clip-rule="evenodd" d="M33.2674 21C33.2674 17.8056 34.7494 14.9722 37.0272 13.1389C35.3531 11.8056 33.2399 11 30.9346 11C25.4732 11 21.0547 15.4722 21.0547 21C21.0547 26.5278 25.4732 31 30.9346 31C33.2399 31 35.3531 30.1944 37.0272 28.8611C34.7494 27.0556 33.2674 24.1944 33.2674 21Z" fill="white"/>
<path fill-rule="evenodd" clip-rule="evenodd" d="M52.9999 21C52.9999 26.5278 48.5814 31 43.12 31C40.8147 31 38.7014 30.1944 37.0273 28.8611C39.3327 27.0278 40.7872 24.1944 40.7872 21C40.7872 17.8056 39.3052 14.9722 37.0273 13.1389C38.7014 11.8056 40.8147 11 43.12 11C48.5814 11 52.9999 15.5 52.9999 21Z" fill="#676767"/>
</svg>
