<svg width="20" height="20" viewBox="0 0 20 20" fill="none" xmlns="http://www.w3.org/2000/svg">
  <path d="M12.6667 14.3335H6.66667V10.0002C6.66667 8.3335 8 7.00016 9.66667 7.00016C11.3333 7.00016 12.6667 8.3335 12.6667 10.0002V14.3335ZM14 13.6668V10.0002C14 7.9535 12.5733 6.24016 10.6667 5.78683V5.3335C10.6667 5.06828 10.5613 4.81393 10.3738 4.62639C10.1862 4.43885 9.93188 4.3335 9.66667 4.3335C9.40145 4.3335 9.1471 4.43885 8.95956 4.62639C8.77202 4.81393 8.66667 5.06828 8.66667 5.3335V5.78683C6.75333 6.24016 5.33333 7.9535 5.33333 10.0002V13.6668L4 15.0002V15.6668H15.3333V15.0002L14 13.6668ZM9.66667 17.6668C10.0203 17.6668 10.3594 17.5264 10.6095 17.2763C10.8595 17.0263 11 16.6871 11 16.3335H8.33333C8.33333 16.6871 8.47381 17.0263 8.72386 17.2763C8.97391 17.5264 9.31304 17.6668 9.66667 17.6668Z" fill="var(--color-default)"/>
</svg>
