<svg width="45" height="13" viewBox="0 0 45 13" fill="none" xmlns="http://www.w3.org/2000/svg">
<path d="M40.2559 0H31.6177C32.1209 2.85145 34.8885 5.53516 37.9076 5.53516H44.7847C44.8685 5.28357 44.8685 4.86423 44.8685 4.61263C44.8685 2.09665 42.7719 0 40.2559 0Z" fill="url(#paint0_linear)"/>
<path d="M32.3721 6.03809V12.999H36.5654V9.30886H40.2555C42.2683 9.30886 44.0295 7.88314 44.6165 6.03809H32.3721Z" fill="#4FAD50"/>
<path d="M17.6118 0V12.9154H21.3019C21.3019 12.9154 22.2245 12.9154 22.7277 11.9929C25.2436 7.04475 25.9984 5.53517 25.9984 5.53517H26.5016V12.9154H30.6949V0H27.0048C27.0048 0 26.0823 0.0838712 25.5791 0.922532C23.4824 5.1997 22.3083 7.38022 22.3083 7.38022H21.8051V0H17.6118Z" fill="#4FAD50"/>
<path d="M0 13.0003V0.0849609H4.1933C4.1933 0.0849609 5.36744 0.0849583 6.03837 1.93001C7.71569 6.79424 7.88343 7.46518 7.88343 7.46518C7.88343 7.46518 8.21888 6.29105 9.72847 1.93001C10.3994 0.0849583 11.5735 0.0849609 11.5735 0.0849609H15.7668V13.0003H11.5735V6.03946H11.0703L8.72209 13.0003H6.87703L4.52879 6.03946H4.02559V13.0003H0Z" fill="#4FAD50"/>
<defs>
<linearGradient id="paint0_linear" x1="31.6027" y1="2.80725" x2="44.8388" y2="2.80725" gradientUnits="userSpaceOnUse">
<stop stop-color="#27B1E6"/>
<stop offset="1" stop-color="#148ACA"/>
</linearGradient>
</defs>
</svg>
