<svg width="33" height="21" viewBox="0 0 33 21" fill="none" xmlns="http://www.w3.org/2000/svg">
<path d="M20.2917 2.26749L11.7446 2.29688L12.0036 17.9444L20.5507 17.9151L20.2917 2.26749Z" fill="#FF5F00"/>
<path d="M12.3073 10.1528C12.2544 6.97019 13.6801 4.14233 15.9132 2.30804C14.2276 0.985354 12.1144 0.189976 9.82372 0.197822C4.39689 0.216408 0.0803914 4.68707 0.171911 10.1943C0.263431 15.7016 4.72802 20.1422 10.1548 20.1236C12.4456 20.1158 14.5321 19.306 16.1735 17.9719C13.8801 16.1808 12.3602 13.3354 12.3073 10.1528Z" fill="#EB001B"/>
<path d="M32.1234 10.0169C32.2149 15.5242 27.8984 19.9949 22.4716 20.0135C20.1809 20.0213 18.0677 19.2259 16.3821 17.9032C18.6425 16.0689 20.0409 13.2411 19.988 10.0585C19.9352 6.87591 18.4156 4.05813 16.1218 2.23935C17.7633 0.905271 19.8498 0.0955094 22.1405 0.0876639C27.5673 0.0690776 32.0324 4.53734 32.1234 10.0169Z" fill="#F79E1B"/>
</svg>
