<svg width="43" height="13" viewBox="0 0 43 13" fill="none" xmlns="http://www.w3.org/2000/svg">
<path d="M39.4952 0.186523H36.8333C36.0286 0.186523 35.4095 0.434142 35.0381 1.2389L29.9619 12.8151H33.5524C33.5524 12.8151 34.1714 11.2675 34.2952 10.896C34.6667 10.896 38.1952 10.896 38.6905 10.896C38.8143 11.3294 39.1238 12.7532 39.1238 12.7532H42.3429L39.4952 0.186523ZM35.2857 8.29605C35.5952 7.55319 36.6476 4.76748 36.6476 4.76748C36.6476 4.82938 36.9572 4.02462 37.081 3.59129L37.3286 4.70557C37.3286 4.70557 38.0095 7.73891 38.1333 8.35795H35.2857V8.29605Z" fill="#3362AB"/>
<path d="M30.2096 8.66667C30.2096 11.2667 27.8572 13 24.2048 13C22.6572 13 21.1715 12.6905 20.3667 12.319L20.8619 9.47143L21.2953 9.65714C22.4096 10.1524 23.1524 10.3381 24.5143 10.3381C25.5048 10.3381 26.5572 9.96667 26.5572 9.1C26.5572 8.54286 26.1238 8.17143 24.7619 7.55238C23.4619 6.93333 21.7286 5.94286 21.7286 4.14762C21.7286 1.67143 24.1429 0 27.5477 0C28.8477 0 29.9619 0.247619 30.6429 0.557143L30.1477 3.28095L29.9 3.03333C29.281 2.78571 28.4762 2.5381 27.3 2.5381C26 2.6 25.381 3.15714 25.381 3.65238C25.381 4.20952 26.1238 4.64286 27.3 5.2C29.281 6.12857 30.2096 7.18095 30.2096 8.66667Z" fill="#3362AB"/>
<path d="M0 0.310119L0.0619048 0.0625H5.38571C6.12857 0.0625 6.68571 0.310119 6.87143 1.11488L8.04762 6.68631C6.87143 3.71488 4.14762 1.3006 0 0.310119Z" fill="#F9B50B"/>
<path d="M15.5381 0.185928L10.1524 12.7526H6.50002L3.40479 2.22879C5.63336 3.6526 7.4905 5.88117 8.17145 7.42879L8.54288 8.72879L11.8857 0.124023H15.5381V0.185928Z" fill="#3362AB"/>
<path d="M16.9621 0.124023H20.3668L18.2002 12.7526H14.7954L16.9621 0.124023Z" fill="#3362AB"/>
</svg>
