<svg width="20" height="20" viewBox="0 0 20 20" fill="none" xmlns="http://www.w3.org/2000/svg">
<path fill-rule="evenodd" clip-rule="evenodd" d="M6.67723 5.55566C7.29689 5.55566 7.88039 5.61611 8.42775 5.737C7.88126 5.62013 7.29657 5.55566 6.67723 5.55566ZM8.18962 8.33722C7.77462 8.20359 7.31353 8.1303 6.85546 8.12928C7.30612 8.12738 7.76635 8.20093 8.18962 8.33722ZM8.15715 12.6114C6.39715 12.9913 4.03568 12.7542 4.03568 10.3824C4.03568 8.24405 6.248 7.50921 7.99999 8.0156C8.2133 7.33434 8.52516 6.70092 8.94862 6.13008C8.24366 5.91944 7.503 5.80566 6.67723 5.80566C5.68234 5.80566 4.80428 5.97296 4.03734 6.30149L4.03568 6.30221C3.29183 6.61532 2.70216 7.10484 2.26376 7.77824L2.26279 7.77973C1.83092 8.43274 1.60388 9.29991 1.60388 10.3992C1.60388 12.0153 2.05284 13.14 2.8921 13.834C3.74895 14.5426 4.9087 14.9089 6.40159 14.9089C7.07862 14.9089 7.6625 14.8385 8.15715 14.7025C8.24588 14.6761 8.4265 14.6085 8.59441 14.5456L8.59453 14.5456L8.59454 14.5456C8.71929 14.4988 8.83701 14.4548 8.9048 14.4322C8.55962 13.8687 8.31903 13.2558 8.15715 12.6114ZM15.6548 6.32942C16.3027 6.67429 16.81 7.18034 17.1786 7.85436L17.1809 7.85844C17.5565 8.51573 17.7513 9.33627 17.7513 10.3321C17.7513 11.8408 17.3507 12.9648 16.5837 13.7425C15.8142 14.5116 14.7499 14.9089 13.3589 14.9089C12.5009 14.9089 11.7494 14.7323 11.0979 14.3859C10.449 14.0297 9.93551 13.5174 9.55563 12.8428C9.18916 12.1613 9.00002 11.3277 9.00002 10.3321C9.00002 8.84642 9.40026 7.73939 10.167 6.97265C10.9361 6.20352 12.006 5.80567 13.4092 5.80567C14.2679 5.80567 15.0136 5.98252 15.6533 6.32862L15.6548 6.32942ZM12.0962 12.2707C11.8586 11.7956 11.7514 11.1414 11.7514 10.3321C11.7514 9.52432 11.8581 8.87797 12.0987 8.42218C12.0987 8.42218 12.4484 7.98683 12.6515 7.8693C12.8546 7.75176 13.3757 7.68552 13.3757 7.68552C13.6602 7.68552 13.9189 7.74254 14.1407 7.8693C14.3634 7.99655 14.5338 8.18553 14.6539 8.42461C14.8935 8.88027 14.9999 9.52575 14.9999 10.3321C14.9999 11.1407 14.8929 11.7945 14.6557 12.2695C14.537 12.5131 14.3692 12.7073 14.149 12.8387C13.9294 12.9697 13.6735 13.029 13.3924 13.029C13.1066 13.029 12.8463 12.9701 12.622 12.8404C12.3966 12.7101 12.2227 12.517 12.0974 12.2731L12.0962 12.2707Z" fill="#EB922A"/>
</svg>
