<svg width="25" height="25" viewBox="0 0 25 25" fill="none" xmlns="http://www.w3.org/2000/svg">
<path d="M12.5645 2.74316C7.06445 2.74316 2.56445 7.24316 2.56445 12.7432C2.56445 18.2432 7.06445 22.7432 12.5645 22.7432C18.0645 22.7432 22.5645 18.2432 22.5645 12.7432C22.5645 7.24316 18.0645 2.74316 12.5645 2.74316ZM12.5645 20.7432C8.15445 20.7432 4.56445 17.1532 4.56445 12.7432C4.56445 8.33316 8.15445 4.74316 12.5645 4.74316C16.9745 4.74316 20.5645 8.33316 20.5645 12.7432C20.5645 17.1532 16.9745 20.7432 12.5645 20.7432ZM17.1545 8.32316L10.5645 14.9132L7.97445 12.3332L6.56445 13.7432L10.5645 17.7432L18.5645 9.74316L17.1545 8.32316Z" fill="#66BB6A"/>
</svg>
