<svg width="13" height="13" viewBox="0 0 13 13" fill="none" xmlns="http://www.w3.org/2000/svg">
	<symbol id="full">
		<path d="M6.5 10.4479L10.517 13L9.451 8.19L13 4.95368L8.3265 4.52947L6.5 0L4.6735 4.52947L0 4.95368L3.5425 8.19L2.483 13L6.5 10.4479Z" fill="#EB922A"/>
	</symbol>
	<symbol id="half">
		<path d="M6.5 10.4479L10.517 13L9.451 8.19L13 4.95368L8.3265 4.52947L6.5 0L4.6735 4.52947L0 4.95368L3.5425 8.19L2.483 13L6.5 10.4479Z" fill="#D2D2D2"/>
		<path d="M6.5 0L4.6735 4.52947L0 4.95368L3.5425 8.19L2.483 13L6.5 10.4479V0Z" fill="#EB922A"/>
	</symbol>
	<symbol id="empty">
		<path d="M6.5 10.4479L10.517 13L9.451 8.19L13 4.95368L8.3265 4.52947L6.5 0L4.6735 4.52947L0 4.95368L3.5425 8.19L2.483 13L6.5 10.4479Z" fill="#D2D2D2"/>
	</symbol>
</svg>