<svg width="400" height="400" viewBox="0 0 400 400" fill="none" xmlns="http://www.w3.org/2000/svg">
<g clip-path="url(#clip0)">
<g opacity="0.05">
<rect x="303.635" y="-427.257" width="3.36824" height="1131.19" transform="rotate(35.8255 303.635 -427.257)" fill="black"/>
<rect x="308.104" y="-421" width="3.36824" height="1131.19" transform="rotate(35.8255 308.104 -421)" fill="black"/>
<rect x="312.572" y="-414.743" width="3.36824" height="1131.19" transform="rotate(35.8255 312.572 -414.743)" fill="black"/>
<rect x="317.041" y="-408.486" width="3.36824" height="1131.19" transform="rotate(35.8255 317.041 -408.486)" fill="black"/>
<rect x="321.51" y="-402.229" width="3.36824" height="1131.19" transform="rotate(35.8255 321.51 -402.229)" fill="black"/>
<rect x="325.979" y="-395.972" width="3.36824" height="1131.19" transform="rotate(35.8255 325.979 -395.972)" fill="black"/>
<rect x="330.447" y="-389.715" width="3.36824" height="1131.19" transform="rotate(35.8255 330.447 -389.715)" fill="black"/>
<rect x="334.916" y="-383.458" width="3.36824" height="1131.19" transform="rotate(35.8255 334.916 -383.458)" fill="black"/>
<rect x="339.385" y="-377.201" width="3.36824" height="1131.19" transform="rotate(35.8255 339.385 -377.201)" fill="black"/>
<rect x="343.854" y="-370.944" width="3.36824" height="1131.19" transform="rotate(35.8255 343.854 -370.944)" fill="black"/>
<rect x="348.322" y="-364.688" width="3.36824" height="1131.19" transform="rotate(35.8255 348.322 -364.688)" fill="black"/>
<rect x="352.791" y="-358.43" width="3.36824" height="1131.19" transform="rotate(35.8255 352.791 -358.43)" fill="black"/>
<rect x="357.26" y="-352.173" width="3.36824" height="1131.19" transform="rotate(35.8255 357.26 -352.173)" fill="black"/>
<rect x="361.729" y="-345.917" width="3.36824" height="1131.19" transform="rotate(35.8255 361.729 -345.917)" fill="black"/>
<rect x="366.197" y="-339.659" width="3.36824" height="1131.19" transform="rotate(35.8255 366.197 -339.659)" fill="black"/>
<rect x="370.666" y="-333.402" width="3.36824" height="1131.19" transform="rotate(35.8255 370.666 -333.402)" fill="black"/>
<rect x="375.135" y="-327.146" width="3.36824" height="1131.19" transform="rotate(35.8255 375.135 -327.146)" fill="black"/>
<rect x="379.604" y="-320.889" width="3.36824" height="1131.19" transform="rotate(35.8255 379.604 -320.889)" fill="black"/>
<rect x="384.072" y="-314.632" width="3.36824" height="1131.19" transform="rotate(35.8255 384.072 -314.632)" fill="black"/>
<rect x="388.541" y="-308.375" width="3.36824" height="1131.19" transform="rotate(35.8255 388.541 -308.375)" fill="black"/>
<rect x="393.01" y="-302.118" width="3.36824" height="1131.19" transform="rotate(35.8255 393.01 -302.118)" fill="black"/>
<rect x="397.479" y="-295.861" width="3.36824" height="1131.19" transform="rotate(35.8255 397.479 -295.861)" fill="black"/>
<rect x="401.947" y="-289.604" width="3.36824" height="1131.19" transform="rotate(35.8255 401.947 -289.604)" fill="black"/>
<rect x="406.416" y="-283.347" width="3.36824" height="1131.19" transform="rotate(35.8255 406.416 -283.347)" fill="black"/>
<rect x="410.885" y="-277.09" width="3.36824" height="1131.19" transform="rotate(35.8255 410.885 -277.09)" fill="black"/>
<rect x="415.354" y="-270.833" width="3.36824" height="1131.19" transform="rotate(35.8255 415.354 -270.833)" fill="black"/>
<rect x="419.822" y="-264.576" width="3.36824" height="1131.19" transform="rotate(35.8255 419.822 -264.576)" fill="black"/>
<rect x="424.291" y="-258.319" width="3.36824" height="1131.19" transform="rotate(35.8255 424.291 -258.319)" fill="black"/>
<rect x="428.76" y="-252.062" width="3.36824" height="1131.19" transform="rotate(35.8255 428.76 -252.062)" fill="black"/>
<rect x="433.229" y="-245.805" width="3.36824" height="1131.19" transform="rotate(35.8255 433.229 -245.805)" fill="black"/>
<rect x="437.697" y="-239.548" width="3.36824" height="1131.19" transform="rotate(35.8255 437.697 -239.548)" fill="black"/>
<rect x="442.166" y="-233.291" width="3.36824" height="1131.19" transform="rotate(35.8255 442.166 -233.291)" fill="black"/>
<rect x="446.635" y="-227.034" width="3.36824" height="1131.19" transform="rotate(35.8255 446.635 -227.034)" fill="black"/>
<rect x="451.104" y="-220.777" width="3.36824" height="1131.19" transform="rotate(35.8255 451.104 -220.777)" fill="black"/>
<rect x="455.572" y="-214.521" width="3.36824" height="1131.19" transform="rotate(35.8255 455.572 -214.521)" fill="black"/>
<rect x="460.041" y="-208.263" width="3.36824" height="1131.19" transform="rotate(35.8255 460.041 -208.263)" fill="black"/>
<rect x="464.51" y="-202.006" width="3.36824" height="1131.19" transform="rotate(35.8255 464.51 -202.006)" fill="black"/>
<rect x="468.979" y="-195.75" width="3.36824" height="1131.19" transform="rotate(35.8255 468.979 -195.75)" fill="black"/>
<rect x="473.447" y="-189.492" width="3.36824" height="1131.19" transform="rotate(35.8255 473.447 -189.492)" fill="black"/>
<rect x="477.916" y="-183.235" width="3.36824" height="1131.19" transform="rotate(35.8255 477.916 -183.235)" fill="black"/>
<rect x="482.385" y="-176.979" width="3.36824" height="1131.19" transform="rotate(35.8255 482.385 -176.979)" fill="black"/>
<rect x="486.854" y="-170.722" width="3.36824" height="1131.19" transform="rotate(35.8255 486.854 -170.722)" fill="black"/>
<rect x="491.322" y="-164.465" width="3.36824" height="1131.19" transform="rotate(35.8255 491.322 -164.465)" fill="black"/>
<rect x="495.791" y="-158.208" width="3.36824" height="1131.19" transform="rotate(35.8255 495.791 -158.208)" fill="black"/>
<rect x="500.26" y="-151.951" width="3.36824" height="1131.19" transform="rotate(35.8255 500.26 -151.951)" fill="black"/>
<rect x="504.729" y="-145.694" width="3.36824" height="1131.19" transform="rotate(35.8255 504.729 -145.694)" fill="black"/>
<rect x="509.197" y="-139.437" width="3.36824" height="1131.19" transform="rotate(35.8255 509.197 -139.437)" fill="black"/>
<rect x="513.666" y="-133.18" width="3.36824" height="1131.19" transform="rotate(35.8255 513.666 -133.18)" fill="black"/>
<rect x="518.135" y="-126.923" width="3.36824" height="1131.19" transform="rotate(35.8255 518.135 -126.923)" fill="black"/>
<rect x="522.604" y="-120.666" width="3.36824" height="1131.19" transform="rotate(35.8255 522.604 -120.666)" fill="black"/>
<rect x="527.072" y="-114.409" width="3.36824" height="1131.19" transform="rotate(35.8255 527.072 -114.409)" fill="black"/>
<rect x="531.541" y="-108.152" width="3.36824" height="1131.19" transform="rotate(35.8255 531.541 -108.152)" fill="black"/>
<rect x="536.01" y="-101.895" width="3.36824" height="1131.19" transform="rotate(35.8255 536.01 -101.895)" fill="black"/>
<rect x="540.479" y="-95.6382" width="3.36824" height="1131.19" transform="rotate(35.8255 540.479 -95.6382)" fill="black"/>
<rect x="544.947" y="-89.3809" width="3.36824" height="1131.19" transform="rotate(35.8255 544.947 -89.3809)" fill="black"/>
<rect x="549.416" y="-83.124" width="3.36824" height="1131.19" transform="rotate(35.8255 549.416 -83.124)" fill="black"/>
<rect x="553.885" y="-76.8672" width="3.36824" height="1131.19" transform="rotate(35.8255 553.885 -76.8672)" fill="black"/>
<rect x="558.354" y="-70.6104" width="3.36824" height="1131.19" transform="rotate(35.8255 558.354 -70.6104)" fill="black"/>
<rect x="562.822" y="-64.3535" width="3.36824" height="1131.19" transform="rotate(35.8255 562.822 -64.3535)" fill="black"/>
<rect x="567.291" y="-58.0962" width="3.36824" height="1131.19" transform="rotate(35.8255 567.291 -58.0962)" fill="black"/>
<rect x="571.76" y="-51.8394" width="3.36824" height="1131.19" transform="rotate(35.8255 571.76 -51.8394)" fill="black"/>
<rect x="576.229" y="-45.5825" width="3.36824" height="1131.19" transform="rotate(35.8255 576.229 -45.5825)" fill="black"/>
<rect x="580.697" y="-39.3252" width="3.36824" height="1131.19" transform="rotate(35.8255 580.697 -39.3252)" fill="black"/>
<rect x="585.166" y="-33.0684" width="3.36824" height="1131.19" transform="rotate(35.8255 585.166 -33.0684)" fill="black"/>
<rect x="589.635" y="-26.8115" width="3.36824" height="1131.19" transform="rotate(35.8255 589.635 -26.8115)" fill="black"/>
<rect x="594.104" y="-20.5547" width="3.36824" height="1131.19" transform="rotate(35.8255 594.104 -20.5547)" fill="black"/>
<rect x="598.572" y="-14.2979" width="3.36824" height="1131.19" transform="rotate(35.8255 598.572 -14.2979)" fill="black"/>
<rect x="603.041" y="-8.04053" width="3.36824" height="1131.19" transform="rotate(35.8255 603.041 -8.04053)" fill="black"/>
<rect x="607.51" y="-1.78369" width="3.36824" height="1131.19" transform="rotate(35.8255 607.51 -1.78369)" fill="black"/>
<rect x="611.979" y="4.47314" width="3.36824" height="1131.19" transform="rotate(35.8255 611.979 4.47314)" fill="black"/>
<rect x="616.447" y="10.7305" width="3.36824" height="1131.19" transform="rotate(35.8255 616.447 10.7305)" fill="black"/>
<rect x="620.916" y="16.9873" width="3.36824" height="1131.19" transform="rotate(35.8255 620.916 16.9873)" fill="black"/>
<rect x="625.385" y="23.2441" width="3.36824" height="1131.19" transform="rotate(35.8255 625.385 23.2441)" fill="black"/>
<rect x="629.854" y="29.501" width="3.36824" height="1131.19" transform="rotate(35.8255 629.854 29.501)" fill="black"/>
<rect x="634.322" y="35.7578" width="3.36824" height="1131.19" transform="rotate(35.8255 634.322 35.7578)" fill="black"/>
<rect x="638.791" y="42.0151" width="3.36824" height="1131.19" transform="rotate(35.8255 638.791 42.0151)" fill="black"/>
<rect x="643.26" y="48.272" width="3.36824" height="1131.19" transform="rotate(35.8255 643.26 48.272)" fill="black"/>
<rect x="647.729" y="54.5288" width="3.36824" height="1131.19" transform="rotate(35.8255 647.729 54.5288)" fill="black"/>
<rect x="652.197" y="60.7861" width="3.36824" height="1131.19" transform="rotate(35.8255 652.197 60.7861)" fill="black"/>
<rect x="656.666" y="67.043" width="3.36824" height="1131.19" transform="rotate(35.8255 656.666 67.043)" fill="black"/>
<rect x="661.135" y="73.2998" width="3.36824" height="1131.19" transform="rotate(35.8255 661.135 73.2998)" fill="black"/>
<rect x="665.604" y="79.5566" width="3.36824" height="1131.19" transform="rotate(35.8255 665.604 79.5566)" fill="black"/>
<rect x="670.072" y="85.8135" width="3.36824" height="1131.19" transform="rotate(35.8255 670.072 85.8135)" fill="black"/>
</g>
</g>
<defs>
<clipPath id="clip0">
<rect width="400" height="400" fill="white"/>
</clipPath>
</defs>
</svg>
