<svg width="20" height="20" viewBox="0 0 20 20" fill="none" xmlns="http://www.w3.org/2000/svg">
<path d="M3.77648 10.4976C3.75226 10.3126 3.72991 10.1271 3.70336 9.94249C3.55339 8.91847 3.51193 7.89271 3.69963 6.86956C3.97164 5.38315 4.8971 4.33313 6.28832 3.62243C7.53655 2.98453 8.88819 2.76915 10.3004 2.85496C11.4867 2.92776 12.6045 3.22244 13.6128 3.82134C15.1177 4.71232 15.8769 6.00502 15.9528 7.65177C15.9924 8.54044 15.9402 9.4306 15.7968 10.31C15.7875 10.368 15.7809 10.4265 15.7712 10.5019C16.1605 10.4881 16.3701 10.6983 16.5164 10.986C16.5463 11.0446 16.5656 11.1074 16.5737 11.1719C16.6785 12.0703 16.4568 12.8737 15.8401 13.5939C15.5606 13.9177 15.366 14.3051 15.1582 14.6773C14.6561 15.5748 14.1065 16.4411 13.359 17.1852C12.6236 17.9167 11.7614 18.4532 10.6902 18.6586C9.25846 18.9311 7.99113 18.584 6.8626 17.7542C6.00234 17.1219 5.36705 16.3124 4.83469 15.4327C4.55057 14.9633 4.29953 14.4767 4.03871 13.9952C3.99213 13.9116 3.94555 13.8817 3.84076 13.9025C3.08669 14.0498 2.44674 13.7859 2.07087 13.1445C1.7226 12.5414 1.46332 11.8972 1.30004 11.2296C1.22319 10.9262 1.24602 10.5904 1.29399 10.2788C1.34988 9.91215 1.59627 9.6322 1.95024 9.45539C2.04572 9.40729 2.07879 9.36092 2.07833 9.26299C2.07833 8.59908 2.09835 7.93475 2.07833 7.26955C2.02803 5.44556 2.92694 4.05665 4.38476 2.94033C5.72568 1.90938 7.29482 1.39455 9.02372 1.27668C10.4806 1.17787 11.8951 1.34861 13.2482 1.87124C14.9426 2.52647 16.25 3.57909 17.031 5.14741C17.6937 6.47406 17.4578 7.94954 17.4647 9.39039C17.464 9.4752 17.4574 9.55987 17.4451 9.6439C17.4371 9.73712 17.3901 9.8237 17.3143 9.88504C17.2384 9.94638 17.1397 9.97758 17.0394 9.97195C16.8256 9.96892 16.6733 9.84585 16.6668 9.63784C16.6384 8.88987 16.6244 8.14103 16.5951 7.39262C16.5825 7.06891 16.5741 6.74259 16.5159 6.42321C16.3911 5.74284 16.0152 5.16084 15.5844 4.61611C14.4507 3.17737 12.8932 2.3878 11.02 2.12389C9.43359 1.90028 7.89426 2.06842 6.4341 2.71368C5.10576 3.30131 4.10997 4.21743 3.41831 5.42476C3.04571 6.07479 2.95256 6.77856 2.93719 7.49749C2.92601 8.04136 2.92787 8.58565 2.9316 9.12994C2.9316 9.18065 2.98423 9.23655 3.02475 9.28075C3.12489 9.39299 3.26182 9.48573 3.33029 9.61183C3.45045 9.83328 3.52917 10.0742 3.62744 10.3052C3.65678 10.3741 3.69311 10.4404 3.72618 10.5076L3.77648 10.4976ZM5.65861 15.2099L5.62834 15.2355C5.64566 15.2753 5.66557 15.3141 5.68796 15.3516C5.8901 15.6519 6.07873 15.9614 6.2995 16.2491C6.72893 16.8081 7.25943 17.2675 7.92034 17.5895C8.80528 18.0198 9.7545 18.0055 10.6893 17.8777C11.6888 17.7407 12.4531 17.1843 13.0735 16.4576C13.6939 15.7308 14.1205 14.9174 14.5425 14.0906C14.7046 13.7729 14.8816 13.4522 15.1121 13.1766C15.4521 12.7706 15.6831 12.3337 15.7516 11.8258C15.7828 11.5927 15.7982 11.3492 15.6682 11.1377C15.4819 10.83 15.243 10.739 14.9924 11.0636C14.8466 11.2525 14.74 11.4679 14.6161 11.6703C14.59 11.7136 14.5662 11.7569 14.5416 11.8003C14.6664 10.9392 14.8764 10.0981 14.9202 9.22095C14.8098 9.21272 14.7153 9.20622 14.6203 9.19798C13.9109 9.13558 13.1969 9.09918 12.4922 9.00384C11.1071 8.81576 9.79595 8.41317 8.63947 7.66044C8.14856 7.34149 7.7019 6.96317 7.23986 6.60695C7.20166 6.57344 7.15456 6.55001 7.1034 6.53904C7.05225 6.52807 6.99887 6.52997 6.94877 6.54455C6.12204 6.72829 5.54357 7.21495 5.06431 7.83898C4.75504 8.24113 4.58457 8.67145 4.64047 9.16895C4.69356 9.64 4.73362 10.1124 4.80488 10.5813C4.86449 10.9851 4.95532 11.3851 5.03263 11.7864C4.99094 11.7558 4.95812 11.7161 4.93715 11.6707C4.82677 11.4826 4.7257 11.2889 4.60041 11.1099C4.53941 11.0165 4.44992 10.9419 4.34331 10.8959C4.26227 10.8664 4.14117 10.9006 4.05035 10.9357C3.94742 10.9752 3.9572 11.0701 3.98701 11.1572C4.01681 11.2443 4.03871 11.3305 4.06898 11.4172C4.26646 11.9806 4.45929 12.5474 4.66701 13.1073C4.71502 13.2538 4.79422 13.3898 4.89989 13.5073C5.7336 14.3462 6.74523 14.9282 7.91242 15.2797C8.02513 15.3135 8.0936 15.2957 8.16672 15.1982C8.31623 14.9993 8.50347 14.8082 8.7764 14.7952C9.1674 14.7804 9.55903 14.7897 9.94872 14.8229C10.0975 14.837 10.2374 14.8959 10.3469 14.9906C10.5575 15.1878 10.6841 15.4335 10.5938 15.7273C10.496 16.0415 10.3013 16.2734 9.92962 16.3232C9.43219 16.3899 8.93662 16.3947 8.44711 16.2643C7.70981 16.068 6.96507 15.8925 6.29018 15.5362C6.08106 15.4253 5.8696 15.3187 5.65861 15.2099Z" fill="#E7E7E7" fill-opacity="0.7"/>
</svg>
