<svg width="24" height="24" viewBox="0 0 24 24" fill="none" xmlns="http://www.w3.org/2000/svg">
<circle cx="12" cy="12" r="11.5" fill="white" stroke="#D1D5E2"/>
<path fill-rule="evenodd" clip-rule="evenodd" d="M12.0352 8C14.4996 8 16.8967 9.25798 18.7853 11.542L19 11.8018L18.8152 12.083C17.131 14.6451 14.6452 16.1143 11.9953 16.1143C9.50645 16.1143 7.09907 14.8552 5.21684 12.5702L5 12.3069L5.19071 12.0247C6.94491 9.42925 9.37578 8 12.0352 8ZM6.14427 12.2532C7.81276 14.1575 9.87931 15.2021 11.9953 15.2021C14.2696 15.2021 16.3412 14.0195 17.8609 11.8637C16.1871 9.95751 14.1297 8.91233 12.0353 8.91233C9.78474 8.91233 7.70387 10.0958 6.14427 12.2532ZM14.4873 12.0573C14.4873 13.4307 13.374 14.544 12.0006 14.544C10.6273 14.544 9.51391 13.4307 9.51391 12.0573C9.51391 10.6839 10.6273 9.57058 12.0006 9.57058C13.374 9.57058 14.4873 10.6839 14.4873 12.0573Z" fill="#A3A3A3"/>
</svg>
