<svg width="24" height="24" viewBox="0 0 24 24" fill="none" xmlns="http://www.w3.org/2000/svg">
<circle cx="12" cy="12" r="11.5" fill="white" stroke="#D1D5E2"/>
<path d="M14.6667 15.3333H8.66667V10.9999C8.66667 9.33325 10 7.99992 11.6667 7.99992C13.3333 7.99992 14.6667 9.33325 14.6667 10.9999V15.3333ZM16 14.6666V10.9999C16 8.95325 14.5733 7.23992 12.6667 6.78659V6.33325C12.6667 6.06804 12.5613 5.81368 12.3738 5.62615C12.1862 5.43861 11.9319 5.33325 11.6667 5.33325C11.4014 5.33325 11.1471 5.43861 10.9596 5.62615C10.772 5.81368 10.6667 6.06804 10.6667 6.33325V6.78659C8.75333 7.23992 7.33333 8.95325 7.33333 10.9999V14.6666L6 15.9999V16.6666H17.3333V15.9999L16 14.6666ZM11.6667 18.6666C12.0203 18.6666 12.3594 18.5261 12.6095 18.2761C12.8595 18.026 13 17.6869 13 17.3333H10.3333C10.3333 17.6869 10.4738 18.026 10.7239 18.2761C10.9739 18.5261 11.313 18.6666 11.6667 18.6666Z" fill="#A3A3A3"/>
</svg>
