<svg width="74" height="40" viewBox="0 0 74 40" fill="none" xmlns="http://www.w3.org/2000/svg">
<rect width="74" height="40" rx="2" fill="#15191D"/>
<g clip-path="url(#clip0)">
<path fill-rule="evenodd" clip-rule="evenodd" d="M57.0654 26.3741C57.0654 25.9884 57.3733 25.6758 57.7528 25.6758C58.133 25.6758 58.4402 25.9884 58.4402 26.3741C58.4402 26.7595 58.133 27.0724 57.7528 27.0724C57.3733 27.0724 57.0654 26.7595 57.0654 26.3741ZM57.7523 26.9043C58.0416 26.9043 58.2751 26.6669 58.2751 26.3741C58.2751 26.0803 58.0416 25.8435 57.7523 25.8435C57.4643 25.8435 57.2304 26.0803 57.2304 26.3741C57.2304 26.6669 57.4643 26.9043 57.7523 26.9043ZM57.6602 26.6801H57.5196V26.0669H57.7746C57.8278 26.0669 57.8816 26.0676 57.9287 26.0976C57.9775 26.1325 58.0051 26.1902 58.0051 26.251C58.0051 26.3211 57.9657 26.386 57.9011 26.4099L58.0115 26.6801H57.855L57.7635 26.4372H57.6602V26.6801ZM57.6603 26.3322H57.7377C57.767 26.3322 57.7983 26.3349 57.8238 26.3209C57.847 26.3055 57.8592 26.2768 57.8592 26.2495C57.8592 26.227 57.845 26.1996 57.8252 26.1877C57.8003 26.173 57.7612 26.176 57.735 26.176H57.6603V26.3322Z" fill="white"/>
<path fill-rule="evenodd" clip-rule="evenodd" d="M53.672 27.1152H56.7231L54.063 14.2305H51.3922C50.1584 14.2305 49.8574 15.1902 49.8574 15.1902L44.9023 27.1152H48.3655L49.0581 25.2017H53.2826L53.672 27.1152ZM50.0158 22.5578L51.7615 17.7349L52.7442 22.5578H50.0158Z" fill="white"/>
<path fill-rule="evenodd" clip-rule="evenodd" d="M45.1612 17.3288L45.6357 14.5617C45.6357 14.5617 44.172 14 42.6471 14C40.9979 14 37.0819 14.7276 37.0819 18.2655C37.0819 21.5949 41.6785 21.6365 41.6785 23.3835C41.6785 25.1317 37.5559 24.8196 36.1947 23.717L35.7012 26.6094C35.7012 26.6094 37.1844 27.3376 39.4523 27.3376C41.7192 27.3376 45.1411 26.1517 45.1411 22.9264C45.1411 19.5763 40.5033 19.2636 40.5033 17.8073C40.5033 16.3504 43.7398 16.5376 45.1612 17.3288Z" fill="white"/>
<path fill-rule="evenodd" clip-rule="evenodd" d="M33.6538 27.1152H30.3311L32.4076 14.2305H35.7314L33.6538 27.1152Z" fill="white"/>
<path fill-rule="evenodd" clip-rule="evenodd" d="M24.3678 23.0928L27.5355 14.2305H31.112L25.825 27.1152H22.3629L19.4767 15.9211C17.602 14.7845 16.0005 14.4484 16 14.4484C16.0005 14.4484 18.5179 14.9751 20.9323 16.9477C23.2409 18.8344 23.9926 21.1848 23.9926 21.1848V21.1842L24.3678 23.0928Z" fill="white"/>
<path fill-rule="evenodd" clip-rule="evenodd" d="M23.9926 21.1848L22.8743 15.3906C22.8743 15.3906 22.7398 14.2305 21.2984 14.2305H16.0613L16 14.4484C16.0005 14.4484 18.5179 14.9751 20.9323 16.9477C23.2409 18.8344 23.9926 21.1848 23.9926 21.1848Z" fill="white"/>
</g>
<defs>
<clipPath id="clip0">
<rect width="42" height="14" fill="white" transform="translate(16 14)"/>
</clipPath>
</defs>
</svg>
