<svg width="16" height="16" viewBox="0 0 16 16" fill="none" xmlns="http://www.w3.org/2000/svg">
<path fill-rule="evenodd" clip-rule="evenodd" d="M8.03516 3.80664C10.4996 3.80664 12.8967 5.06462 14.7853 7.34864L15 7.60842L14.8152 7.88966C13.131 10.4517 10.6452 11.9209 7.99534 11.9209C5.50645 11.9209 3.09907 10.6618 1.21684 8.37686L1 8.11351L1.19071 7.83133C2.94491 5.23589 5.37578 3.80664 8.03516 3.80664ZM2.14427 8.05984C3.81276 9.96415 5.87931 11.0087 7.99534 11.0087C10.2696 11.0087 12.3412 9.82618 13.8609 7.67033C12.1871 5.76415 10.1297 4.71897 8.03531 4.71897C5.78474 4.71897 3.70387 5.90244 2.14427 8.05984ZM10.4873 7.86393C10.4873 9.2373 9.374 10.3506 8.00063 10.3506C6.62725 10.3506 5.51391 9.2373 5.51391 7.86393C5.51391 6.49056 6.62725 5.37722 8.00063 5.37722C9.374 5.37722 10.4873 6.49056 10.4873 7.86393Z" fill="white" fill-opacity="0.4"/>
</svg>
